<svg xmlns="http://www.w3.org/2000/svg" width="64" height="64" viewBox="0 0 64 64">
  <defs>
    <linearGradient id="folderBody" x1="0" y1="0" x2="0" y2="1">
      <stop offset="0" stop-color="#6cb2f5"/>
      <stop offset="1" stop-color="#3d8ee8"/>
    </linearGradient>
    <linearGradient id="folderTab" x1="0" y1="0" x2="0" y2="1">
      <stop offset="0" stop-color="#8ec8fa"/>
      <stop offset="1" stop-color="#5aa3f0"/>
    </linearGradient>
  </defs>
  <path
    d="M 8 20 Q 8 16 12 16 L 26 16 L 31 22 L 52 22 Q 56 22 56 26 L 56 46 Q 56 50 52 50 L 12 50 Q 8 50 8 46 Z"
    fill="url(#folderTab)"
  />
  <path
    d="M 8 26 L 8 46 Q 8 50 12 50 L 52 50 Q 56 50 56 46 L 56 30 Q 56 26 52 26 L 12 26 Q 8 26 8 26 Z"
    fill="url(#folderBody)"
  />
  <rect x="21" y="29" width="24" height="17" rx="2" fill="#ffffff" fill-opacity="0.94"/>
  <circle cx="27" cy="34" r="2.4" fill="#ffcf5c"/>
  <path d="M 21 44 L 30 36 L 36 41 L 41 35 L 45 44 Z" fill="#5aa3f0" fill-opacity="0.85"/>
</svg>
