<svg xmlns="http://www.w3.org/2000/svg" width="64" height="64" viewBox="0 0 64 64">
  <defs>
    <linearGradient id="folderBody" x1="0" y1="0" x2="0" y2="1">
      <stop offset="0" stop-color="#6cb2f5"/>
      <stop offset="1" stop-color="#3d8ee8"/>
    </linearGradient>
    <linearGradient id="folderTab" x1="0" y1="0" x2="0" y2="1">
      <stop offset="0" stop-color="#8ec8fa"/>
      <stop offset="1" stop-color="#5aa3f0"/>
    </linearGradient>
  </defs>
  <path
    d="M 8 20
       Q 8 16 12 16
       L 26 16
       L 31 22
       L 52 22
       Q 56 22 56 26
       L 56 46
       Q 56 50 52 50
       L 12 50
       Q 8 50 8 46
       Z"
    fill="url(#folderTab)"
  />
  <path
    d="M 8 26
       L 8 46
       Q 8 50 12 50
       L 52 50
       Q 56 50 56 46
       L 56 30
       Q 56 26 52 26
       L 12 26
       Q 8 26 8 26
       Z"
    fill="url(#folderBody)"
  />
  <path
    d="M 32 30 L 44 40 L 41 40 L 41 47 L 23 47 L 23 40 L 20 40 Z"
    fill="#ffffff"
    fill-opacity="0.92"
  />
  <rect x="29" y="41" width="6" height="6" fill="#3d8ee8"/>
</svg>
