<svg xmlns="http://www.w3.org/2000/svg" width="128" height="128" viewBox="0 0 128 128">
  <defs>
    <linearGradient id="fasdBodyGradient" x1="0" y1="0" x2="0" y2="1">
      <stop offset="0" stop-color="#8dc4ff"/>
      <stop offset="1" stop-color="#4a90e2"/>
    </linearGradient>
    <linearGradient id="fasdTabGradient" x1="0" y1="0" x2="0" y2="1">
      <stop offset="0" stop-color="#a9d4ff"/>
      <stop offset="1" stop-color="#6fb1ff"/>
    </linearGradient>
    <linearGradient id="fasdAccentGradient" x1="0" y1="0" x2="1" y2="1">
      <stop offset="0" stop-color="#ffd76a"/>
      <stop offset="1" stop-color="#ffb648"/>
    </linearGradient>
    <filter id="fasdSoftShadow" x="-20%" y="-20%" width="140%" height="140%">
      <feDropShadow dx="0" dy="2" stdDeviation="2" flood-color="#1a3a5c" flood-opacity="0.28"/>
    </filter>
  </defs>

  <rect x="4" y="4" width="120" height="120" rx="28" fill="#1c2b3a"/>
  <rect x="4" y="4" width="120" height="120" rx="28" fill="none" stroke="#0f1c27" stroke-width="1"/>

  <path
    d="M 22 44
       L 22 92
       Q 22 98 28 98
       L 100 98
       Q 106 98 106 92
       L 106 52
       Q 106 46 100 46
       L 62 46
       L 54 36
       L 28 36
       Q 22 36 22 42
       Z"
    fill="url(#fasdTabGradient)"
    filter="url(#fasdSoftShadow)"
  />

  <path
    d="M 22 52
       L 22 92
       Q 22 98 28 98
       L 100 98
       Q 106 98 106 92
       L 106 60
       Q 106 54 100 54
       L 28 54
       Q 22 54 22 52
       Z"
    fill="url(#fasdBodyGradient)"
  />

  <rect x="30" y="62" width="26" height="6" rx="3" fill="#ffffff" fill-opacity="0.55"/>
  <rect x="30" y="72" width="42" height="6" rx="3" fill="#ffffff" fill-opacity="0.4"/>
  <rect x="30" y="82" width="34" height="6" rx="3" fill="#ffffff" fill-opacity="0.4"/>

  <circle cx="90" cy="80" r="17" fill="url(#fasdAccentGradient)" filter="url(#fasdSoftShadow)"/>
  <path
    d="M 83 80 L 88 85 L 98 74"
    fill="none"
    stroke="#5a3a00"
    stroke-width="3.4"
    stroke-linecap="round"
    stroke-linejoin="round"
  />
</svg>
